<svg width="28" height="28" viewBox="0 0 28 28" fill="none" xmlns="http://www.w3.org/2000/svg">
<path d="M27.3337 4.9065L12.1203 20.1332L6.46699 14.4798L8.34699 12.5998L12.1203 16.3732L25.4537 3.03984L27.3337 4.9065ZM24.387 11.6265C24.5603 12.3865 24.667 13.1865 24.667 13.9998C24.667 19.8932 19.8937 24.6665 14.0003 24.6665C8.10699 24.6665 3.33366 19.8932 3.33366 13.9998C3.33366 8.1065 8.10699 3.33317 14.0003 3.33317C16.107 3.33317 18.0537 3.9465 19.707 4.99984L21.627 3.07984C19.467 1.55984 16.8403 0.666504 14.0003 0.666504C6.64033 0.666504 0.666992 6.63984 0.666992 13.9998C0.666992 21.3598 6.64033 27.3332 14.0003 27.3332C21.3603 27.3332 27.3337 21.3598 27.3337 13.9998C27.3337 12.4132 27.0403 10.8932 26.5337 9.47984L24.387 11.6265Z" fill="#5AC462"/>
</svg>
